<?xml version="1.0" encoding="UTF-8" standalone="no"?>
<svg
   xmlns:dc="http://purl.org/dc/elements/1.1/"
   xmlns:cc="http://creativecommons.org/ns#"
   xmlns:rdf="http://www.w3.org/1999/02/22-rdf-syntax-ns#"
   xmlns:svg="http://www.w3.org/2000/svg"
   xmlns="http://www.w3.org/2000/svg"
   xmlns:sodipodi="http://sodipodi.sourceforge.net/DTD/sodipodi-0.dtd"
   xmlns:inkscape="http://www.inkscape.org/namespaces/inkscape"
   class="icon"
   width="32px"
   height="32.00px"
   viewBox="0 0 1024 1024"
   version="1.1"
   id="svg2"
   inkscape:version="0.91 r13725"
   sodipodi:docname="lock.svg">
  <metadata
     id="metadata10">
    <rdf:RDF>
      <cc:Work
         rdf:about="">
        <dc:format>image/svg+xml</dc:format>
        <dc:type
           rdf:resource="http://purl.org/dc/dcmitype/StillImage" />
      </cc:Work>
    </rdf:RDF>
  </metadata>
  <defs
     id="defs8" />
  <sodipodi:namedview
     pagecolor="#ffffff"
     bordercolor="#666666"
     borderopacity="1"
     objecttolerance="10"
     gridtolerance="10"
     guidetolerance="10"
     inkscape:pageopacity="0"
     inkscape:pageshadow="2"
     inkscape:window-width="1436"
     inkscape:window-height="752"
     id="namedview6"
     showgrid="false"
     inkscape:zoom="7.375"
     inkscape:cx="16"
     inkscape:cy="12.378983"
     inkscape:window-x="0"
     inkscape:window-y="0"
     inkscape:window-maximized="0"
     inkscape:current-layer="svg2" />
  <path
     fill="#00E676"
     d="M217.86496 206.782553M217.86496 473.569736M217.86496 740.301659M775.964904 390.137535l-58.226123 0L717.738781 254.607792c0-113.473401-92.244914-205.761294-205.727525-205.761294s-205.832925 92.287893-205.832925 205.761294l0 65.123206 79.05859 0L385.236921 294.633391l-26.89965-16.762779 26.89965-14.308891 0-5.575995c0-69.870324 56.939827-126.810151 126.820384-126.810151 69.918419 0 126.740566 56.939827 126.740566 126.810151l0 132.151809L385.236921 390.137535l-79.05859 0L247.940952 390.137535c-28.007891 0-50.780547 22.735817-50.780547 50.837852l0 370.975103c0 28.113291 22.772656 50.873668 50.780547 50.873668l528.093537 0c28.125571 0 50.804083-22.760376 50.804083-50.873668L826.838571 440.974363C826.838571 412.873352 804.12629 390.137535 775.964904 390.137535zM540.570709 636.135228l0 81.010035c0 3.612271-3.040243 6.662747-6.675026 6.662747l-43.696198 0c-3.717671 0-6.722098-3.050476-6.722098-6.662747l0-81.010035c-20.502963-10.498098-34.776038-31.53932-34.776038-56.192813 0-34.917254 28.381397-63.298652 63.241346-63.298652 34.974559 0 63.298652 28.381397 63.298652 63.298652C575.334467 604.595908 561.036833 625.63713 540.570709 636.135228z"
     id="path4"
     style="fill:#ffffff" />
</svg>
